<svg xmlns="http://www.w3.org/2000/svg" viewBox="0 0 300 290.722">
  <svg xmlns="http://www.w3.org/2000/svg">
    <defs>
      <clipPath id="a">
        <path fill="none" d="M0 0h299.991v290.723H0z"/>
      </clipPath>
    </defs>
    <g fill="none" stroke-miterlimit="10" clip-path="url(#a)" font-family="none" font-size="none" font-weight="none" style="mix-blend-mode:normal" text-anchor="none">
      <path fill="#d8edf5" d="M0 0h300v290.722H0z"/>
      <path fill="#2a4256" d="M56.73 65.108c22.491-25.569 52.414-41.563 86.648-43.75a123.911 123.911 0 0 1 89.611 31.484 123.216 123.216 0 0 1 40.846 83.228 122.789 122.789 0 0 1-30.677 89.827 123.556 123.556 0 0 1-85.484 41.732 123.69 123.69 0 0 1-61.713-12.764 119.776 119.776 0 0 1-8.2-4.513c-.675-.403-2.495-1.453-2.995-1.948l-.537-.232c-.697-.63-4.159-2.905-5.135-3.594a133.05 133.05 0 0 1-6.774-5.202l-.6-.521c-2.814-2.087-13.423-12.42-15.13-15.166l-.217-.103c-4.3-5.403-7.603-9.732-11.26-15.722a123.89 123.89 0 0 1-16.652-48.75 121.114 121.114 0 0 1 17.23-78.73A151.757 151.757 0 0 1 56.021 65.9z"/>
      <path fill="#213444" d="M56.373 223.586c.195-.783.487-1.678 1.447-1.523.22.507-.07.83-.4 1.205-.293.116-.385.156-.69.238l-.14.183z"/>
      <path fill="#d8edf5" d="M91.427 102.732c9.068-.238 18.997-.036 28.128-.036l49.413-.007 27.76.023c4.783-.005 9.636-.13 14.4.08 4.148.184 6.16 3.584 6.192 7.379.042 5.078.036 10.137.03 15.21l-.013 27.86-.005 17.787c0 1.016-.02 2.081.002 3.094.122 5.603.608 11.874-7.016 12.182-9.232.102-18.631.01-27.882.01l-51.256.007-27.5-.003c-4.351-.003-8.83.08-13.177-.054-1.351-.041-2.933-.634-3.956-1.492-1.484-1.244-2.324-2.871-2.375-4.83-.122-4.632-.076-9.362-.078-13.996l-.002-27.072.013-20.366c0-1.061.018-2.198-.006-3.255-.143-6.092-.764-11.977 7.328-12.521z"/>
      <path fill="#2a4256" d="M149.742 111.63c3.65-.333 4.135 1.612 4.185 4.8.052 3.312.024 6.634.022 9.946l-.001 18.178v16.687c.001 3.044.016 6.086-.025 9.13-.03 2.146-.494 3.138-2.616 3.879-2.498.1-3.718-1.285-3.733-3.688-.026-4.342.002-8.684.009-13.026l.015-24.695-.015-12.195c-.006-2.068-.12-4.834.173-6.878.13-.906 1.227-1.693 1.986-2.139zm-50.86-.012c3.47-.186 3.901 1.749 3.936 4.697.04 3.517.022 7.036.02 10.553l-.013 20.168c-.003 3.174.267 23.826-.247 25.24-.324.892-1.22 1.492-2.05 1.846-1.672.07-3.598-.307-3.818-2.359-.27-2.525-.15-5.207-.152-7.756l-.011-12.688.01-23.094c-.003-4.166-.04-8.33-.005-12.496.018-2.142.196-3.172 2.33-4.11zm102.578.027c2.892.031 3.456 1.682 3.46 4.18.006 2.397.034 4.808.037 7.206l-.01 18.636.018 19.19c.005 3.305.027 6.61-.019 9.916-.025 1.822-.811 2.922-2.584 3.421-1.43.01-3.306-.549-3.515-2.255-.233-1.892-.119-4.142-.118-6.077l.017-13.052-.012-24.78c-.009-4.238-.043-8.477-.013-12.714.013-1.878.775-3.294 2.739-3.671zm-21.012-.015c.687-.054 1.421-.025 2.115-.016.604.41 1.246.906 1.587 1.567.302.585.39 1.223.416 1.873.145 3.662.32 45.4-.158 46.596-.368.923-1.216 1.58-2.098 1.964-1.392.256-3.42-.4-3.68-1.614-.625-2.926-.382-8.407-.385-11.285l-.013-16.766c-.003-3.272-.404-18.052.231-20.184.324-1.088 1.016-1.623 1.985-2.135zm-61.358.013c.664-.073 1.312-.144 1.96.057.846.26 1.477.829 1.867 1.622.385.784.347 2.003.376 2.868.186 5.446-.01 10.948-.01 16.4.001 3.924.336 27.471-.246 29.12-.34.962-1.134 1.48-2.02 1.885-.536.075-1.022.123-1.559-.003a3.183 3.183 0 0 1-2.058-1.54c-.806-1.448-.52-8.45-.517-10.549l.01-15.227-.006-13.896c-.002-1.961-.029-3.935 0-5.896.036-2.423-.108-3.584 2.203-4.841zm41.176-.029c3.206-.225 3.898 1.656 3.934 4.44.097 7.191.03 14.382.059 21.574l.001 14.717c-.006 2.63.195 6.683-.33 9.32-.181.905-1.275 1.602-2.109 1.984-1.684.232-3.709-.602-3.751-2.403-.36-15.268-.09-30.602-.135-45.882-.006-1.991.522-2.969 2.33-3.75zm-20.518.016c.634-.052 1.257-.077 1.863.131.75.25 1.361.8 1.688 1.52.245.534.334 1.946.334 2.57.014 14.699.076 29.407-.018 44.106-.013 2.012-.658 2.917-2.48 3.707-3.003.067-3.751-1.53-3.784-4.239a712.856 712.856 0 0 1-.04-7.875l.014-15.123-.003-13.892c.005-2.56-.208-6.42.388-8.922.218-.915 1.187-1.59 2.038-1.982zm30.77 0c.505-.03 1.005-.066 1.496.077.826.239 1.501.753 1.863 1.544.372.811.343 1.987.373 2.867.157 4.502.386 44.06-.249 45.68-.39.997-1.242 1.485-2.19 1.853-.495.038-1.15.02-1.62-.14-1.96-.678-2.188-2.302-2.194-4.071-.023-8.042-.006-16.079-.009-24.117l-.006-12.7c-.003-2.475-.038-4.957.03-7.43.048-1.825.827-2.923 2.506-3.564zm-61.388.008c.622-.044 1.235-.072 1.829.149.824.306 1.44.951 1.757 1.767.66 1.696.305 26.217.31 29.832.006 5.647.26 11.38.03 17.018a3.65 3.65 0 0 1-.322 1.372c-.476 1.085-1.304 1.514-2.344 1.932-2.065.139-3.548-1.154-3.644-3.234-.104-2.267-.057-4.575-.056-6.848l.012-12.153.031-16.399c.007-3.085-.003-6.17.05-9.254.035-2.102.284-3.264 2.347-4.182zm81.771-.011c.992-.088 1.928-.02 2.732.648a3.117 3.117 0 0 1 1.12 2.18c.178 2.673.1 5.913.1 8.638l-.004 13.816-.003 15.332c0 2.64.2 6.765-.291 9.415-.166.892-1.267 1.63-2.107 1.993-1.552.169-3.454-.616-3.675-2.09-.406-2.698-.233-6.72-.23-9.388l.007-13.23c.002-7.649-.04-15.298-.007-22.946.007-2.168.214-3.444 2.358-4.368zm-61.388-.001c1.193-.074 3.344.208 3.617 1.665.729 3.902.452 8.44.45 12.446l.001 16.55c.001 2.65.298 17.58-.217 19.157-.35 1.067-1.088 1.672-2.068 2.15-1.361.209-2.744-.116-3.516-1.336-.385-.61-.481-2.114-.489-2.847-.033-3.096-.02-6.196-.02-9.293l.007-17.88.002-11.513c.001-2.123-.095-5.042.228-7.14.133-.862 1.248-1.584 2.005-1.96z"/>
      <path fill="#eb7987" d="M137.21 169.042c4.406.137 5.063 7.904.552 9.092-4.916-.385-5.291-8.07-.552-9.092zm50.305.155c5.056-.634 5.855 6.94 1.72 8.817-.497.044-1.022.03-1.502-.119a3.765 3.765 0 0 1-2.227-1.858c-1.26-2.386-.562-5.61 2.009-6.84zm-75.153-.009c4.892-.386 5.783 7.083 1.46 8.915-4.744.295-5.677-6.967-1.46-8.915zm63.126-.152c5.16-.349 5.505 7.5 1.29 8.892-4.756.033-5.56-7.2-1.29-8.892zm-11.641-.001c4.44.001 5.256 7.674.775 9.036-4.843-.3-5.254-7.76-.775-9.036zm-38.986 0c4.679-.063 5.231 7.653.81 8.932-4.491-.03-5.503-7.483-.81-8.933z"/>
      <path fill="#5eabdb" d="M243.916 131.347c5.487.622 7.568-1.311 10.78 4.392 1.407 1.472 2.066 1.846 3.843 2.914 1.816 4.243 3.245 9.061 5.108 13.351 1.043 2.402 1.195 3.713 4.185 3.908a117.739 117.739 0 0 1-41.18 78.35c-24.508 20.366-54.454 30.542-86.396 27.543a117.39 117.39 0 0 1-31.7-7.454c-2.456-.928-7.208-2.916-9.435-4.257.326-.267.323-.236.743-.32 1.76.346 5.368.355 6.028-1.742.947-3.006-6.455-4.016-5.356-6.77.233-.564.462-1.357.654-1.953-.448-1.481-.545-1.755-1.594-2.892.351-1.237.821-4.2 1.266-5.085 2.244-4.462 6.043-.92 5.248-7.65 2.188-.923 2.706-1.307 3.705-3.25 1.92-3.734 4.562-6.647 3.825-11.085-.232-1.398 2.99-2.145 4.329-2.757 5.638-2.578 6.09-8.955 5.95-14.961l55.686.063c-2.114 6.691-.3 8.105 1.984 14.422.745 2.051.832 4.65 1.43 6.78.507 1.805 1.633 3.306 2.276 5.056.509 1.486.513 3.206 1.149 4.649 1.658 3.754 5.412 2.956 8.623 2.276 1.827-.382 3.726-.706 5.426-1.529 3.374-1.634 6.227-4.912 7.98-8.178.705-1.315 1.14-2.616 1.966-3.91.856-1.344 2.231-2.262 2.898-3.662.473-1.36.331-3.963.291-5.456 2.458-3.986 4.722-3.718 6.705-6.856 1.75-2.77 1.441-6.622.606-9.7 1.845-3.482 1.72-4.634 1.719-8.535-.002-3.098 1.504-4.243 3.59-6.176 4.439-4.113 9.202-10.948 9.727-17.14.077-.926-.328-2.098-1.024-2.747a2.973 2.973 0 0 0-1.8-.783c-1.813-.155-5.986 1.391-8.9 1.494 1.49-.797 3.214-1.197 4.846-1.95 6.475-2.986 15.611-6.961 16.418-15.031.138-1.379-.688-2.466-1.6-3.369z"/>
      <path fill="#4490c7" d="M254.697 135.74c1.406 1.47 2.065 1.845 3.842 2.913 1.816 4.243 3.245 9.061 5.108 13.351 1.043 2.402 1.195 3.713 4.185 3.908a117.739 117.739 0 0 1-41.18 78.35c-24.508 20.366-54.454 30.542-86.396 27.543a117.39 117.39 0 0 1-31.7-7.454c-2.456-.928-7.208-2.916-9.435-4.257.326-.267.323-.236.743-.32 1.76.346 5.368.355 6.028-1.742.947-3.006-6.455-4.016-5.356-6.77.255.328 4.209 1.474 4.842 1.671 13.158 4.22 27 5.894 40.784 4.932a116.908 116.908 0 0 0 64.043-25.226c3.744-2.98 9.248-7.918 12.43-11.616 6.938 2.428 8.407-4.315 10.23-9.356.805-2.229 1.491-4.457 2.326-6.69 1.096-.485 3.833-5.634 4.588-6.983 5.903-10.554 10.54-22.067 12.801-33.973 1.144-6.024 1.636-12.175 2.117-18.282z"/>
      <path fill="#2a4256" d="M222.634 211.023c-.395-.237-.962-.668-1.264-1.046-1.156-1.136-1.724-5.759-.907-7.206 1.181-2.09 1.45-2.466 1.4-5.312-.06-3.57 3.12-4.716 5.31-6.703.698-.7 1.647-2.87 2.452-3.336 5.315-3.075 6.105 4.153 5.566 7.557-.835 2.233-1.52 4.461-2.326 6.69-1.823 5.041-3.292 11.784-10.23 9.356z"/>
      <path fill="#83c265" d="M231.48 191.056c.979 2.075-4.12 15.935-5.745 17.027-.502.137-.625.034-1.109-.162-1.734-2.985.144-4.139.622-6.882.227-1.307.086-2.694.392-4.265.66-.763 1.737-1.52 2.555-2.159 1.547-1.207 2.193-1.967 3.285-3.559zM173.773 73.99c-2.2-5.708.335-4.498 3.741-7.858 2.85-2.813 4.613-7.828 8.562-9.598 4.156-1.863 8.139-1.214 12.174.507 1.395.595 5.778 1.42 6.41 2.794-.868.972-5.06-.304-4.9 1.913.16 2.247 2.862 4.877 5.265 4.05 1.891-.652 2.942-2.158 4.46-3.353 1.015-.764 2.312-1.117 3.421-1.646 3.758-1.794 6.365-2.365 10.518-2.547 2.574-.713 2.418.464 3.762-2.557 2.556 1.592 6.663 5.81 8.796 8.03a118.201 118.201 0 0 1 29.496 54.559c2.073 8.902 4.258 25.282 2.64 34.204-1.408-2.205-4.584-10.418-5.17-13.188-.231-1.094-.127-2.88-.33-4.14-1.521-2.111-2.375-.996-4.458-.386-.996-3.877-1.659-3.355-3.884-5.646-3.536-2.354-6.896-.682-10.943-1.607-1.93-.44-2.67-1.651-4.253-2.275-1.167-.46-2.371-.07-3.896-.687-2.476-.953-3.95-4.073-6.777-4.04-1.678.02-2.092 1.32-1.866 2.785.26 1.677 1.45 3.238 2.479 4.564 1.212 1.401 2.358 3.623 3.903 4.662 2.123 1.425 3.974.032 5.154-1.606 1.277 2.262 2.11 1.965 3.476 3.599.678 5.576-12.262 11.296-16.632 12.78-.633-1.955-2.086-4.846-2.313-6.578-.142-1.075.006-4.087.004-5.37l-.033-17.22c.02-4.7.726-10.977-1.714-15.011a11.79 11.79 0 0 0-6.67-5.242c-2.368-.716-5.554-.531-8.078-.519l-13.862.045c-1.748.001-5.093.16-6.66-.09-3.122-.496-2.82-1.965-6.194.108-4.447-.084-9.013.002-13.484-.023-.543-1.46-1.223-2.755-2.363-3.827 3.897-2.423 6.239-3.861 9.123-7.447.553-.686 2.994-1.57 4.234-2.958.064-.378.086-.467.21-.83 2.117 3.062 7.993 1.37 10.795.867 3.77-.675 2.666-3.852 3.923-4.753 2.991.055 1.847-1.727 1.822-3.485.667-.982 5.974.118 4.814-3.276-1.149-3.364-7.423.714-8.362-1.932-.575-1.622 3.507-5.255 2.571-6.848-2.716-4.624-7.273 2.134-8.601 4.59-.972 1.841.06 4 .578 5.358-.584 1.265-1.48 4.445-2.683 4.923-.8-.241-1.41-1.715-1.823-2.46-1.94-3.494-3.31-2.582-6.382-1.334z"/>
      <path fill="#60a859" d="M227.186 55.695c2.556 1.592 6.663 5.81 8.796 8.03a118.201 118.201 0 0 1 29.496 54.559c2.073 8.902 4.258 25.282 2.64 34.204-1.408-2.205-4.584-10.418-5.17-13.188-.231-1.094-.127-2.88-.33-4.14-1.521-2.111-2.375-.996-4.458-.386-.996-3.877-1.659-3.355-3.884-5.646.078-.202.156-.433.147-.656-1.002-25.57-11.398-50.192-28.64-69.07-1.111-1.214-.836-1.065-2.36-1.15 2.575-.713 2.42.464 3.763-2.557z"/>
      <path fill="#83c265" d="M78.53 54.43c1.754 1.518 1.85 6.784 5.912 4.437 1.08-.625 1.544-1.026 2.493-1.852-.352 1.754-.75 3.264-2.736 3.667-2.108.428-1.178 2.613-1.22 4.322l-.266.134c-1.31.01-2.385-1.083-3.687-1.563-3.886 1.21-12.868 5.841-12.373 10.91.422 4.332 6.124 5.588 8.83 7.964-.056 1.324-.288 2.566-.033 3.891.282 1.47 1.975 2.275 3.358 1.902 2.042-.55 1.777-3.101 2.725-4.59.76-1.415 3.834-3.377 4.19-4.872.868-3.647.656-5.354 2.7-8.768 2.1.25 3.248.632 4.736 2.106-.114 7.28 4.314 2.694 6.214 2.835.773.683.53 2.219.821 3.438.085 1.761 4.025 4.806 3.935 6.083-.291 4.113-8.452 3.026-10.723 3.665-2.414.679-5.634 2.164-5.542 4.64.015.378.28.576.543.783 1.158.26 2.304-.358 3.436-.8 1.31 2.095.73 2.49 3.154 4.002l-2.12.805a89.556 89.556 0 0 0-1.424-.883c-7.74.772-11.12 6.47-15.174 12.388-.607.885-.548 2.443-1.318 3.407-1.196 1.498-2.807 2.494-4.278 3.698-4.43 3.367-2.488 6.498-2.768 11.2-.02.335-.04.283-.233.429-.918-.753-.127-4.57-2.206-6.033-3.196-2.248-6.27-1.336-9.283.013-9.218-2.842-12.807 9.266-10.713 16.081 1.16 3.774 6.196 4.804 8.893 2.084.72-.727 2.139-3.643 3.36-2.782-.712 3.158-1.596 3.616-2.052 7.553.41.415.778.646 1.254.98 1.147.036 3.426-.055 4.253.576.715 1.295.026 3.936.347 5.673.9 4.879 3.832 3.285 7.352 4.192.983.253 1.757.874 2.56 1.464 2.222-1.67 2.418-2.847 5.183-4.379.482 1.36.803 1.77 2.182 2.235l-.024 23.426c.033 3.798 1.11 6.83 3.867 9.545 4.067 4.009 9.167 3.317 14.428 3.273l23.123-.004c.104 16.207-6.6 9.04-10.109 15.437-.818 1.49-.096 2.983-.283 4.541-.246 2.05-2.442 5.742-3.727 7.44-.932 1.23-2.896.3-4.168.563-.385.08-.709.288-.896.639-.706 1.325 1.2 2.828 1.558 4.207l.055.216-.854 1.079c-.888.195-1.72.422-2.58.702-1.345.326-.97 1.315-1.469 2.374-.549 1.168-2.012.594-2.242 1.633-.195.886.48 2.344.824 3.192-1.063 2.938-1.061 3.025.76 5.509-.124 1.96-.195 3.415-.062 5.378-2.92-1.627-5.151-4.14-6.562-7.222-.379-.754-.41-2.317-.76-2.995-1.279-2.62-3.336-5.854-3.61-8.85-.415-4.53-1.054-9.078-1.63-13.59-.555-4.34-.098-9.358-1.729-13.49-1.555-3.942-6.136-4.982-8.744-7.818-.562-.654-2.775-5.244-3.42-6.403-.93-1.67-3.3-4.795-3.794-6.229.694-2.574.762-3.021.072-5.57 1.599-4.63 6.235-6.558 4.514-12.441-.566-1.935-1.341-2.46-2.973-3.419-1.431-.082-1.783-.134-3.108.52-1.644-.672-4.19-2.296-4.93-3.88-.842-1.8-.897-3.422-2.907-4.488-1.388-.739-3.005-1.286-4.34-2.131-1.237-.782-2.28-2.22-3.68-2.766-1.413-.523-3.178-.074-4.627-.52-2.122-.697-6.123-3.109-7.614-4.79-.475-.536-.145-3.138-.427-4.06-.578-1.892-1.644-3.625-2.582-5.334l.016-.206c.234-2.793 1.01-6.538 1.597-9.235a117.295 117.295 0 0 1 23.806-49.121c3.046-3.754 6.237-7.41 9.924-10.548 4.399.11 8.297-.346 9.024-5.599z"/>
      <path fill="#5eabdb" d="M116.756 31.843a114.941 114.941 0 0 1 76.707 2.995c8.287 2.974 24.728 12.186 30.824 18.478l-1.127 1.3a38.399 38.399 0 0 1-3.278.158c-3.148.214-8.654 2.306-11.577 3.702-2.05-3.21-6.038-3.872-9.31-5.044-4.86-1.741-8.353-2.446-13.395-.655-3.164 1.124-5.607 3.247-7.42 6.093-1.055 1.66-1.515 2.78-2.887 4.272-1.834 1.995-4.5 2.694-5.658 5.12-.79 1.655-.457 4.361.158 6.068.688 1.91 1.85 2.555 3.536 3.343-.435 1.292-.422 2.103-.488 3.447-.256.496-2.483 2.05-3.15 2.571-.849-1.892-1.962-3.084-2.894-4.782-.91-1.955-.726-3.565-2.223-5.325-1.562-1.838-4.14-1.466-5.874-.015-1.311 1.096-1.524 2.768-1.568 4.447a18.33 18.33 0 0 0-.839.307c-1.414.562-2.871 1.948-3.359 3.355-.492 1.42-.952 4.165-.223 5.518 1.761 3.263 4.153 1.351 5.14 1.722.084 1.193-.005 1.057.986 1.736-.965 4.073.559 4.571 3.61 6.719l-35.231-.008c-6.312-.002-13.77.166-20.034-.09l.112-.063c4.115-2.317 2.128-6.37.39-9.46.63-2.955.945-5.51-1.761-7.503-3.902-2.873-.931-7.168-5.357-9.556 1.104-.715 2.249-1.58 2.759-2.831.129-.292.464-1.825.705-1.947 2.028-1.034 5.016-2.371 4.863-5.141-.096-1.722-1.752-2.771-3.115-3.935-.304-.81-.428-1.666-.796-2.476-1.232-2.707-4.369-4.318-6.788-6.3 1.51-.674 4.813-3.103 6.297-4.16 4.006 7.854 10.397-.641 9.944 9.648-.02.484.291 1.936.404 2.471-2.198 2.535-2.713 3.708-2.467 7.178.307 2.8 1.173 7.244 3.591 8.982 6.88 4.946 9.221-.17 12.227-5.731.73-1.35 4.172-2.144 5.384-3.034 2.304-1.693 3.802-3.293 6.814-3.616 4.022-.826 7.236-3.516 7.911-7.707.208-1.289 2.407-3.298 2.735-4.691.595-1.714.122-4.202 1.248-5.563 1.893-1.535 6.13-2.193 5.57-5.51-.627-3.73-4.49-2.614-7.11-3.142-1.02-.258-1.962-.948-2.92-1.332-4.681-1.878-10.138-1.099-14.993-.365-1.568.237-3.49.906-5.022 1.024-3.062.236-5.574.324-8.602 1.013-.677-.392-1.773-1.21-2.449-1.685z"/>
      <path fill="#4490c7" d="M193.463 34.838c8.287 2.974 24.728 12.186 30.824 18.478l-1.127 1.3a38.399 38.399 0 0 1-3.278.158c.287-.127.252-.116.511-.297-.164-.384-1.235-1.3-1.598-1.641-5.032-4.739-10.797-8.71-16.556-12.49-1.68-1.104-7.954-4.504-8.776-5.508z"/>
      <path fill="#2a4256" d="M149.905 59.076c.234-.022.467-.037.701-.044 3.771-.08 5.51 4.795 2.554 7.235-2.416 1.993-4.58 2.788-7.703 2.698-2.551-.462-4.426-2.128-4.993-4.742-.238-1.096-.163-2.284.494-3.232 1.422-2.05 3.736-1.392 5.85-1.525 1.115-.072 2.023-.217 3.097-.39z"/>
      <path fill="#83c265" d="M150.08 62.749c.175-.015.217.03.403.092l.101.338c-.517 1.674-3.78 2.426-5.416 1.985-.64-.66-.798-1.132-1.148-1.957 2.065.117 4.01-.204 6.06-.458z"/>
      <path fill="#5eabdb" d="M51.172 206.505c-1.646-2.08-3.563-5.764-4.807-8.136-9.483-18.09-14.042-39.083-13.214-59.422 2.354 3.726 7.292 6.937 11.515 8.208.826.249 2.422.221 3.345.255 2.582 2.07 4.802 3.382 7.695 4.972.671.37 1.08 2.187 1.56 2.792 1.692 2.756 5.597 5.814 8.992 5.426.4-.048.8-.101 1.2-.161 1.23 5.824-3.664 6.784-4.059 11.961-.028.36-.09 6.851-.203 6.613 1.934 4.085 4.92 8.015 6.717 12.311 1.829 4.373 7.407 4.794 9.453 8.769.824 1.734.813 6.337.964 8.417.39 5.36 1.478 10.482 1.808 15.845.2 3.241 2.104 7.63 3.524 10.544.664 1.094.84 2.832 1.292 4.02.93 2.45 4.307 6.856 6.646 7.901l-.3.18c-2.34-1.107-6.255-3.724-8.387-5.155-10.259-6.888-19.17-15.413-26.743-25.167-2.426-3.124-5.164-6.62-6.998-10.173z"/>
      <path fill="#4490c7" d="M51.172 206.505c1.127.514 3.287 3.686 4.262 4.743 6.594 7.154 14.042 13.897 22.264 19.134 1.092.697 7.01 4.728 7.826 4.698l.138-.181c.664 1.094.84 2.832 1.292 4.02.93 2.45 4.307 6.856 6.646 7.901l-.3.18c-2.34-1.107-6.255-3.724-8.387-5.155-10.259-6.888-19.17-15.413-26.743-25.167-2.426-3.124-5.164-6.62-6.998-10.173z"/>
      <path fill="#83c265" d="M140.284 34.485c2.28-.087 4.79-.099 6.816 1.049 2.446 1.385 3.88 1.369 6.56 1.387-3.131 1.567-5.973 3.008-5.882 7.052.009.42-.08 1.488-.248 1.864-.759 1.701-2.167 3.08-2.815 4.844-.336.923-.488 2.01-.679 2.986-2.402 2.613-5.165 2.199-8.18 3.532-1.404.62-2.372 2.083-3.8 2.87-1.767.971-3.935 1.333-5.498 2.614-2.462 2.02-3.157 5.432-5.234 7.709l-.14.152-1.484-.47c-1.212-.629-1.783-1.082-2.437-2.273-.97-1.763-1.685-5.93-.716-7.712 1.098-2.022 1.695-2.25 2.448-4.687-1.993-3.589.462-11.141-7.168-11.11-.842.004-2.7.128-3.005-.798.354-1.097 1.647-1.56 2.623-1.984 1.856-.806 3.507-1.522 4.886-3.043 2.242-.516 4.314-1.37 6.487-1.87 1.43-.328 3.485.023 4.856-.293 4.407-1.017 8.071-1.66 12.61-1.819zm77.368 155.025.24.077c.042.15.097.331.088.492-.288 4.861-3.83 5.132-6.597 8.075-2.408 2.561-1.531 4.882-1.46 7.904-.7 1.005-2.456 2.269-2.872 3.191-1.863 4.132-3.751 8.414-8.053 10.626-1.738.893-6.791 2.08-8.823 1.595-.812-.193-1.112-3.944-1.508-5.072l-.074-.21a28.638 28.638 0 0 0-1.03-2.192c-1.57-2.888-1.352-5.848-2.342-8.987-.8-2.536-2.49-5.408-2.86-7.99-.192-1.34.862-3.96 1.34-5.33a1701.1 1701.1 0 0 1 19.035.017c3.218.012 6.994.178 10.167-.19 1.43-.165 3.52-1.3 4.75-2.006z"/>
      <path fill="#5eabdb" d="M78.796 113.834c-.122 8.073-.018 16.195-.105 24.296-1.125.047-1.8.039-2.826.507-.598.579-.639.77-.829 1.597.784 2.169 1.625 1.88 3.712 1.822-.04 2.36-.037 4.721.01 7.082-3.832-.23-5.252.945-7.687 3.647-1.65-.36-4.403-.532-5.605-.895-.657-.95.434-4.605-.217-6.44-1.063-2.995-2.713-2.381-4.74-3.445-1.446-.758 2.015-4.507 1.222-6.388-.272-.643-.327-1.188-1.356-1.8-.999-.594-1.64-.54-2.61-.548-4.625-.042-3.961 3.059-7.207 4.435-.27.076-.764-.038-.942-.258-2.075-2.563-.62-8.539 1.26-10.786 2.226-2.658 4.485-1.081 7.083-1.186.89-.036 2.307-1.544 3.344-1.467.301-.062 1.482.256 1.58.56 1.092 3.387 2.358 9.392 7.31 5.954 3.08-1.763.41-8.457 1.766-10.09 1.786-2.152 4.877-4.14 6.837-6.597z"/>
      <path fill="#2a4256" d="M73.918 139.32c-2.325-.028-4.205-2.525-6.697-3.276-1.844-.556-3.732-.136-4.862-.709-1.25-2.016 1.43-3.289 3.15-3.244 2.392-.058 4.583 1.222 6.652 2.324 1.476.786 3.39 1.614 3.39 3.517-.351.995-.676 1.024-1.633 1.389z"/>
      <path fill="#4490c7" d="M75.552 137.932c.102.322.102.47.313.705-.598.579-.639.77-.829 1.597-.152-.408-.036-.439-.278-.87l-.84-.043c.957-.365 1.282-.394 1.634-1.39z"/>
      <path fill="#83c265" d="M90.903 50.587c3.596-.35 5.673.666 8.39 2.927 1.85 1.539 2.505 2.263 2.76 4.624.839 1.098 1.91 1.675 2.751 2.763l-.052.34c-1.047.847-2.82-.282-3.855.282-1.748.953.273 5.01-2.01 5.76-.659-.085-.683-.085-1.227-.444-1.805-1.978-2.548-2.366-5.081-3.215 2.866-1.101 6.343-2.86 3.862-6.956-1.288-1.56-3.437-2.243-5.329-2.462-1.504-.174-3.784.275-4.496-1.074-.118-2.135 2.846-2.406 4.287-2.545z"/>
      <path fill="#5eabdb" d="M78.775 67.822c.386.107 1.08.423 1.524.563 1.417.446 2.87.275 4.332.172-.216 1.97-1.067 3.098-1.662 4.952-.38 1.183-.448 2.629-.558 3.882-.994 1.177-2.088 1.912-3.333 2.795l-1.337-.953c-1.698-.95-6.226-3.003-6.865-4.587-1.128-2.798 6.023-6.224 7.9-6.824z"/>
      <path fill="#83c265" d="m231.54 153.929.373.082c.158.609-.317 2.031-.51 2.662-1.576 5.145-4.954 8.693-8.703 12.353-.167-.265-.111-12.597-.117-13.876 3.627.898 5.546-.035 8.958-1.221zM106.705 35.637c1.869-.167 4.986-.054 6.906.025-1.482.515-2.743 1.115-4.177 1.695-2.031.821-4.006 1.422-5.865 2.645-1.465.963-2.725 2.147-4.223 3.07l-.18.11c-1.601.879-4.263.354-6.042.103 3.129-1.166 3.108-2.268 5.269-3.857 1.083-.798 7.1-3.635 8.312-3.79zm54.601 40.419c.369.028.294.016.624.15.366.15.691 1.727.753 2.17.364 2.627 2.698 4.47 3.45 6.973.455 1.51-.814 1.62-1.896 1.817-.687.085-1.406.29-2.083.459-.024-2.023.91-3.547.827-5.2-.117-2.39-3.657-3.557-1.675-6.37z"/>
      <path fill="#4490c7" d="M86.406 46.262c.33.292.274.956.013 1.253-1.676 1.902-2.935 3.168-4.05 5.485l-.937-.97-1.325-1.034c1.91-1.478 4.225-3.539 6.3-4.734z"/>
      <path fill="#83c265" d="M104.018 89.42c1.087.338 1.821 3.078 2.192 4.144-.542-.078-1.117-.208-1.656-.318-1.154-.228-1.74-.37-2.854-.738 1.032-1.169 1.454-1.8 2.318-3.087z"/>
      <path fill="#5eabdb" d="M188.263 73.281c.407.227 1.023.899 1.377 1.255-1.548 1.508-1.638 2.758-2.067 4.791-.461.01-1.214.119-1.51-.1.65-1.935 1.491-4.001 2.2-5.946z"/>
      <path fill="#83c265" d="M89.287 44.524c1.534 1.04 2.577 1.63 4.46 1.787l-.425.329c-1.285.053-4.952.28-6.04.148l.036-.211.578-.353.028-.137c-.24.036-.455.062-.697.088l-.018-.179c.3-.33 1.601-1.15 2.078-1.472zm67.636 37.494c.428.013.529.044.937.13.914.909-.121 2.456-.74 3.314-.663-.023-.38.081-.894-.282-.53-1.069-.159-2.377.697-3.162z"/>
      <path fill="#4490c7" d="M90.87 58.05c.981.097 1.463.122 2.247.702.25.488.228.242.074.762-.462.499-1.067.579-1.748.776-.628.227-1.097.512-1.68.833.518-1.065.76-1.94 1.107-3.074zm8.61 39.204c.08-.46.283-.766.502-1.178.907.325 1.844.522 2.782.744.877.05 2.201.326 3.099.494-1.476.045-4.968.156-6.382-.06z"/>
      <path fill="#3b6e9a" d="M102.764 96.82c.877.05 2.201.326 3.099.494-1.476.045-4.968.156-6.382-.06.997-.091 2.676.282 3.283-.434z"/>
      <path fill="#5eabdb" d="M96.885 91.75c1.74-.184 1.597.574 1.163 2.01l-.255.08c-.83-.298-1.808-.626-1.788-1.666.361-.414.227-.283.88-.423z"/>
      <path fill="#4490c7" d="M88.152 62.695c-.025-.027.084 3.2.107 3.58-.234.214-.563.106-.998.09.465-1.418.403-1.693-.61-2.78z"/>
      <path fill="#3b6e9a" d="M93.6 246.82c1.866 1.078 4.258 2.095 6.264 2.953-.42.085-.417.054-.743.32-.664-.175-5.107-2.653-5.82-3.092z"/>
      <path fill="#213444" d="M48.422 209.248c.361.495.266.225.299.836-.25.589-.335.612-.858 1.025-.38-.298-.247-.115-.407-.574.123-.54.565-.881.966-1.287zm21.455 24.882c.403.183.464.356.447.74-.339.493-.392.486-.984.697l-.352-.093-.11-.249c.165-.44.63-.77.999-1.095zm170.813-9.252c.848.239 1.387.845 1.336 1.727-.971-.113-1.345-.85-1.336-1.727z"/>
      <path fill="#4490c7" d="M96.873 70.557c.472.072.88.091 1.292.324-.037.433.017.218-.46.63-.373.242-.372.293-.803.326-.203-.333-.07-.812-.029-1.28z"/>
      <path fill="#213444" d="M60.329 62.564c.618.637.809.758.555 1.631-.65-.125-.673-.131-.937-.687.04-.537.073-.525.382-.944z"/>
      <path fill="#74bab2" d="M93.748 46.311c.466-.109.773-.249 1.196-.06l.146.274c-.314.398-.118.246-.643.42a16.025 16.025 0 0 1-1.125-.305z"/>
      <path fill="#213444" d="M243.713 221.832c.94.268 1.204.533 1.178 1.447-.542-.077-.532-.104-.967-.399-.322-.594-.244-.341-.21-1.048zm-180.079 6.155.371.287c.218.56.208.284.042.854l-.417.208c-.417-.243-.409-.214-.687-.6.144-.457.22-.387.69-.749zm189.277-18.497c.777.114 1.19.604 1.134 1.38-.639-.021-.353.07-.888-.29-.287-.497-.252-.494-.246-1.09zM66.662 56.775c.39.241.357.234.575.644-.096.519-.037.339-.493.768-.393-.107-.38-.081-.667-.364.05-.542.18-.527.585-1.048z"/>
      <path fill="#60a859" d="M176.91 83.171c-.12-.825-.308-1.892-.191-2.71l.332.134c.057.615.082 1.13.07 1.745a3.962 3.962 0 0 0-.21.831z"/>
      <path fill="#213444" d="M228.129 237.378c.864-.04 1.292.358 1.501 1.13-.942.121-1.234-.333-1.501-1.13zm-2.829 3.154a.542.542 0 0 1 .828.46.54.54 0 0 1-1.006.272.542.542 0 0 1 .178-.732zm12.608-180.846c.54.332.381.112.608.592-.214.472-.228.366-.737.71l-.316-.154c-.107-.47.114-.583.445-1.148zm11.922 152.857c.825.3.78.816.803 1.6-.104-.036-.395-.195-.505-.252-.349-.457-.283-.736-.297-1.348zM44.872 84.472c.349.288.296.955.334 1.403l-.27-.162c-.226-.437-.126-.743-.064-1.24z"/>
      <path fill="#edf8fb" d="M84.766 248.404c-.272.802-.725 1.252-1.618 1.187-.43-.282-.31-.095-.43-.54l.233-.362c.531-.298.69-.438 1.278-.517zM264.79 91.764l.276.254c.11.75.208 1.524.015 2.269l-.332.127c-.45-1.303-1.1-1.574.04-2.65zm-3.036-6.144.25.214c.093.518.29 1.508-.01 1.96l-.34-.011c-.335-.358-.585-.562-.754-1.023.084-.506.466-.763.854-1.14zM56.022 65.9c-.533-.352-.678-.518-.96-1.069-.01-.528-.1-.321.2-.672l.373-.025c.58.26.675.463 1.094.974zM71.72 238.855l.6.521c-.39.62-.826 1.169-1.638.804l-.078-.331c.226-.54.58-.662 1.116-.994zM200.695 30.242c.93-.08 2.354-.446 2.735.509-.927.22-2.032.165-2.735-.51zm6.857 3.071c.637-.032 1.626-.234 2.01.293l-.13.41c-.557-.026-1.848-.032-2.148-.516zM39.696 201.321c.682.425.452 1.4.346 2.074-.817-.436-.501-1.277-.346-2.074zM226.865 45.705c.454-.022.586-.046 1.041.06.284.447.188.192.13.85-.328-.036-.537-.084-.855-.15-.378-.385-.249-.153-.316-.76z"/>
    </g>
  </svg>
</svg>
